<?xml version="1.0" standalone="no"?><!DOCTYPE svg PUBLIC "-//W3C//DTD SVG 1.1//EN"
        "http://www.w3.org/Graphics/SVG/1.1/DTD/svg11.dtd">
<svg t="1621999317249" class="icon" viewBox="0 0 1024 1024" version="1.1" xmlns="http://www.w3.org/2000/svg"
     p-id="14768" width="16" height="16">
    <defs>
        <style type="text/css"></style>
    </defs>
    <path d="M981.3 903H42.7C19.1 903 0 922.1 0 945.7s19.1 42.7 42.7 42.7h938.7c23.6 0 42.7-19.1 42.7-42.7-0.1-23.6-19.2-42.7-42.8-42.7zM324.2 719.2c33.3 33.3 77 50 120.7 50s87.4-16.7 120.7-50l60.3-60.3 30.2 30.2 241.4-241.4c66.6-66.7 66.6-174.7 0-241.4L776.8 85.7c-33.3-33.3-77-50-120.7-50s-87.4 16.7-120.7 50L294 327l30.2 30.2-60.3 60.3c-66.7 66.7-66.7 174.7 0 241.4l60.3 60.3zM595.7 146c16.1-16.1 37.5-25 60.3-25 22.8 0 44.2 8.9 60.3 25L837 266.7c33.3 33.3 33.3 87.4 0 120.7l-181 181L414.7 327l181-181zM324.2 477.9l60.3-60.3 181 181-60.3 60.3c-16.1 16.1-37.5 25-60.3 25-22.8 0-44.2-8.9-60.3-25l-60.3-60.3c-33.4-33.3-33.4-87.5-0.1-120.7z"
          p-id="14769"></path>
</svg>